<svg width="59" height="66" viewBox="0 0 59 66" fill="none" xmlns="http://www.w3.org/2000/svg">
<path fill-rule="evenodd" clip-rule="evenodd" d="M3.43614 24.2306C1.57811 26.4528 0.165292 28.958 0.0703125 32.3485V63.5973C0.0703125 64.2362 0.320481 64.8489 0.765783 65.3006C1.21109 65.7524 1.81504 66.0062 2.4448 66.0062H56.6483C57.2781 66.0062 57.882 65.7524 58.3274 65.3006C58.7727 64.8489 59.0228 64.2362 59.0228 63.5973V35.1066C59.0605 32.2249 58.7293 29.3504 58.0374 26.5552C56.4524 19.7742 53.5496 12.355 51.3473 5.44156C50.0473 1.82827 47.3938 0.431139 43.9627 0.280586H31.74C29.4783 0.280586 28.2733 0.117988 26.0947 0.882799C24.2105 1.50261 22.4711 2.5068 20.9836 3.83365L3.43614 24.2306ZM30.1491 9.46434C29.5555 8.86213 29.781 8.14549 30.4518 8.11538H41.9325C42.5708 8.22355 43.1685 8.5044 43.6627 8.92835C44.1569 9.35229 44.5291 9.90363 44.7403 10.5242L49.6852 24.3751C49.9701 25.2423 49.4121 25.694 48.5632 24.9412L30.1491 9.46434Z" fill="#46DBBF"/>
</svg>
